<mxfile
  host="Electron" 
  agent="Mozilla/5.0 (Macintosh; Intel Mac OS X 10_15_7) AppleWebKit/537.36 (KHTML, like Gecko) draw.io/25.0.2 Chrome/128.0.6613.186 Electron/32.2.5 Safari/537.36" 
  version="25.0.2"
  >
  <diagram
    name="-"
    >
    <mxGraphModel
      grid="1" 
      gridSize="10" 
      guides="1" 
      tooltips="1" 
      connect="1" 
      arrows="1" 
      fold="1" 
      page="1" 
      pageScale="1" 
      pageWidth="1" 
      pageHeight="1" 
      math="0" 
      shadow="0"
      >
      <root>
        <mxCell
          id="page"
          />
        <mxCell
          id="root" 
          parent="page"
          />
        <mxCell
          style="verticalAlign=top;aspect=fixed;align=center;spacingLeft=5;spacingRight=5;spacingBottom=5;strokeColor=none;" 
          id="shape_" 
          parent="root" 
          value=" " 
          vertex="1"
          >
          <mxGeometry
            as="geometry" 
            width="88" 
            height="81" 
            x="0" 
            y="0"
            />
          </mxCell>
        <mxCell
          style="rounded=1;whiteSpace=wrap;verticalAlign=top;align=center;shape=image;editableCssRules=.*;verticalLabelPosition=bottom;labelBackgroundColor=default;aspect=fixed;imageAspect=0;image=data:image/svg+xml,PHN2ZyB4bWxucz0iaHR0cDovL3d3dy53My5vcmcvMjAwMC9zdmciIHZpZXdCb3g9Ii0wLjUgLTAuNSAyOCAyMSIgaGVpZ2h0PSIyMSIgd2lkdGg9IjI4Ij4mI3hhOwkgIDxzdHlsZSB0eXBlPSJ0ZXh0L2NzcyI+LnN0MCB7IHN0b3AtY29sb3I6IHJnYig5MSwgMTE1LCAxMzkpOyB9IC5zdDEgeyBzdG9wLWNvbG9yOiByZ2IoMzQsIDUzLCA3Mik7IH0gPC9zdHlsZT4mI3hhOwk8ZGVmcz4mI3hhOwkJPGxpbmVhckdyYWRpZW50IGdyYWRpZW50VW5pdHM9InVzZXJTcGFjZU9uVXNlIiB5Mj0iMjMuMzI5IiB4Mj0iMTcuMzc1IiB5MT0iMi40ODEiIHgxPSIyLjAzOSIgaWQ9IkEiPiYjeGE7CQkJPHN0b3AgY2xhc3M9InN0MCIvPiYjeGE7CQkJPHN0b3AgY2xhc3M9InN0MSIgb2Zmc2V0PSIxIi8+JiN4YTsJCTwvbGluZWFyR3JhZGllbnQ+JiN4YTsJPC9kZWZzPiYjeGE7CTxwYXRoIGZpbGw9InVybCgjQSkiIGQ9Ik0yMy4yODktLjVjMS4yMDMgMCAyLjIwNi40MTkgMy4wMDggMS4yNTguODAyLjgwMiAxLjIwMyAxLjc4NiAxLjIwMyAyLjk1M3YxMi41NzhjMCAxLjIwMy0uNDAxIDIuMjA2LTEuMjAzIDMuMDA4UzI0LjQ5MiAyMC41IDIzLjI4OSAyMC41SDMuNzExYy0xLjIwMyAwLTIuMjA2LS40MDEtMy4wMDgtMS4yMDNTLS41IDE3LjQ5Mi0uNSAxNi4yODlWMy43MTFDLS41IDIuNTQ0LS4wOTkgMS41Ni43MDMuNzU4IDEuNTA1LS4wODEgMi41MDgtLjUgMy43MTEtLjV6TTMuODIgMi4zNDRjLS4zNjUgMC0uNTgzLjAzNi0uNjU2LjEwOWw5LjYyNSA2LjAxNmMuMjU1LjE0Ni41MjkuMjE5LjgyLjIxOXMuNTI5LS4wNzMuNzExLS4yMTlMMjQgMi40NTNjLS4wNzMtLjA3My0uMTgyLS4xMDktLjMyOC0uMTA5aC0uMzgzem0xOS40NjkgMTUuMzY3Yy45NDggMCAxLjQyMi0uNDc0IDEuNDIyLTEuNDIyVjUuNDA2bC04Ljk2OSA1LjU3OGE0LjEyIDQuMTIgMCAwIDEtMi4yNDIuNjU2Yy0uNzY2IDAtMS41MTMtLjIxOS0yLjI0Mi0uNjU2TDIuMjg5IDUuNDA2djEwLjg4M2MwIC45NDguNDc0IDEuNDIyIDEuNDIyIDEuNDIyeiIvPiYjeGE7PC9zdmc+;strokeColor=none;" 
          id="message_non_sap_" 
          parent="shape_" 
          value=" " 
          vertex="1"
          >
          <mxGeometry
            width="28" 
            height="21" 
            as="geometry" 
            x="30" 
            y="30"
            />
          </mxCell>
        </root>
      </mxGraphModel>
    </diagram>
  </mxfile>